<?xml version="1.0" standalone="no"?>
<!DOCTYPE svg PUBLIC "-//W3C//DTD SVG 1.1//EN" "http://www.w3.org/Graphics/SVG/1.1/DTD/svg11.dtd" >
<svg xmlns="http://www.w3.org/2000/svg">
<metadata>
Created by FontForge 20120731 at Mon Dec 28 18:02:35 2015
 By Ads
</metadata>
<defs>
<font id="iconfont" horiz-adv-x="1024" >
  <font-face 
    font-family="iconfont"
    font-weight="500"
    font-stretch="normal"
    units-per-em="1024"
    panose-1="2 0 6 3 0 0 0 0 0 0"
    ascent="896"
    descent="-128"
    x-height="792"
    bbox="-0.892857 -224 1029 896"
    underline-thickness="50"
    underline-position="-100"
    unicode-range="U+0078-E61C"
  />
<missing-glyph horiz-adv-x="374" 
d="M34 0v682h272v-682h-272zM68 34h204v614h-204v-614z" />
    <glyph glyph-name=".notdef" horiz-adv-x="374" 
d="M34 0v682h272v-682h-272zM68 34h204v614h-204v-614z" />
    <glyph glyph-name=".null" horiz-adv-x="0" 
 />
    <glyph glyph-name="nonmarkingreturn" horiz-adv-x="341" 
 />
    <glyph glyph-name="x" unicode="x" horiz-adv-x="1001" 
d="M281 543q-27 -1 -53 -1h-83q-18 0 -36.5 -6t-32.5 -18.5t-23 -32t-9 -45.5v-76h912v41q0 16 -0.5 30t-0.5 18q0 13 -5 29t-17 29.5t-31.5 22.5t-49.5 9h-133v-97h-438v97zM955 310v-52q0 -23 0.5 -52t0.5 -58t-10.5 -47.5t-26 -30t-33 -16t-31.5 -4.5q-14 -1 -29.5 -0.5
t-29.5 0.5h-32l-45 128h-439l-44 -128h-29h-34q-20 0 -45 1q-25 0 -41 9.5t-25.5 23t-13.5 29.5t-4 30v167h911zM163 247q-12 0 -21 -8.5t-9 -21.5t9 -21.5t21 -8.5q13 0 22 8.5t9 21.5t-9 21.5t-22 8.5zM316 123q-8 -26 -14 -48q-5 -19 -10.5 -37t-7.5 -25t-3 -15t1 -14.5
t9.5 -10.5t21.5 -4h37h67h81h80h64h36q23 0 34 12t2 38q-5 13 -9.5 30.5t-9.5 34.5q-5 19 -11 39h-368zM336 498v228q0 11 2.5 23t10 21.5t20.5 15.5t34 6h188q31 0 51.5 -14.5t20.5 -52.5v-227h-327z" />
    <glyph glyph-name="uniE600" unicode="&#xe600;" 
d="M499 467q20 0 32 12t12 32q0 10 -3.5 18t-9 13.5t-13.5 9t-18 3.5q-21 0 -37 -12.5t-16 -31.5q0 -4 1 -7l2 -8q1 -3 3 -6t5 -6t6 -5l6 -4q3 -2 6.5 -3.5t7.5 -2.5t8 -1.5t8 -0.5zM253 555q-21 0 -37 -12.5t-16 -31.5t16 -31.5t37 -12.5q20 0 32 12t12 32q0 13 -5.5 23
t-15.5 15.5t-23 5.5zM1024 186q0 104 -84 182t-203 87v3v3q-24 111 -130 185t-240 74q-151 0 -259 -92q-103 -88 -108 -212v-11q0 -142 138 -243l-32 -94q-1 -3 -0.5 -6t1.5 -6t4 -5q2 -2 5 -3t5 -1q4 0 8 2l117 59l15 -3q18 -4 27.5 -6t24 -4t27.5 -3t27 -1h11q6 0 12 0.5
t11 0.5q3 0 5 1t3.5 2t2.5 3q33 -81 114.5 -132t183.5 -51q37 0 103 17l91 -50q2 -1 3.5 -1.5t3.5 -0.5l11 3q8 7 5 18l-23 77q120 95 120 208zM399 124q-16 -1 -32 -1q-13 0 -25 1t-25.5 3t-23 3.5t-26.5 5.5l-20 4q-5 1 -10 -1l-88 -45l23 69q0 2 0.5 4.5t0 4t-1.5 3.5
t-2.5 3.5t-2.5 3.5q-134 93 -134 223q0 77 45 142t122 103t168 38q60 0 117.5 -17.5t102 -48.5t76 -74t42.5 -92q-63 0 -120.5 -22t-99 -58t-66 -86t-24.5 -104q0 -11 1 -21.5t3 -20.5t5 -21q-4 1 -5 1zM875 -4q-8 -6 -5 -17l15 -50l-62 34q-2 1 -4 1.5t-4 0.5t-4 -1
q-67 -17 -101 -17q-117 0 -200 70t-83 169q0 39 14.5 75.5t40.5 65.5t61 51.5t78 34.5t89 12q56 0 108 -19.5t90 -51.5t61 -76t23 -92q0 -49 -30 -98t-87 -92zM613 300q-13 0 -24 -11t-11 -24t11 -24t24 -11q19 0 31.5 10.5t12.5 24.5t-12.5 24.5t-31.5 10.5zM806 300
q-13 0 -24 -11t-11 -24t11 -24t24 -11q19 0 31.5 10.5t12.5 24.5q0 23 -26 32q-9 3 -18 3z" />
    <glyph glyph-name="uniE601" unicode="&#xe601;" 
d="M613 781q-4 1 -8 1q-7 0 -13.5 -1.5t-12 -5t-9.5 -8t-7.5 -10t-4.5 -12.5q-4 -19 6.5 -35t29.5 -20q36 -7 70 -21.5t64 -34.5t55.5 -46.5t46.5 -57.5q85 -129 53 -279q0 -5 -0.5 -9.5t0.5 -9t3 -8.5l4 -8q5 -8 12.5 -13t16.5 -7q4 -1 8 -1q15 -1 27 8q16 10 20 29
q14 76 6.5 148.5t-39 138.5t-78.5 118.5t-111.5 90.5t-138.5 53v0zM692 87q66 -43 111 -89q47 -49 46 -84q0 -19 -10.5 -37t-30.5 -37q-6 -6 -16.5 -13.5t-32 -20.5t-52.5 -21.5t-65 -8.5q-40 0 -82 13q-43 13 -87 40q-85 50 -154 118t-131 163q-50 76 -83.5 153.5
t-45.5 138.5t-15.5 93.5t-3.5 56.5q1 133 112 211q21 14 40 22q16 8 30 11.5t27 3.5q12 0 23 -3q33 -10 50 -47q30 -65 49 -161q3 -14 3 -25.5t-2 -19.5t-7.5 -16t-9.5 -12.5t-12.5 -10t-13.5 -8.5t-15 -8h-2q-61 -26 -72 -30q-5 -2 -8.5 -6.5t-4.5 -10t1 -10.5
q38 -115 109 -225q70 -108 158 -189q3 -3 7 -4.5t8 -1.5h2q9 2 15 8q20 26 39 44q42 40 79 40q10 0 19.5 -3t27.5 -14v0zM498 402q-4 1 -7 2t-6.5 3t-6 4t-5 5t-4.5 6q-11 16 -7 35q4 16 17 26.5t30 9.5h8q80 -17 125.5 -86t28.5 -149q-1 -4 -2 -7.5t-3 -6.5t-4 -5.5t-5 -5
t-6 -4.5q-6 -4 -13 -6t-14 -2q-4 0 -7 1q-5 1 -9 2.5t-8 4t-7 6t-6 7.5q-10 16 -6 34q1 9 1.5 17.5t-0.5 16.5t-3 16t-5.5 15.5t-8.5 14.5q-6 9 -13 16.5t-15.5 13.5t-18.5 10t-20 6v0zM546 547q-19 4 -29.5 20t-6.5 34q4 17 17 27.5t30 9.5q4 0 8 -1q65 -13 119.5 -50
t90.5 -93q76 -115 48 -249q-1 -6 -3.5 -11.5t-7 -10t-9.5 -8.5q-12 -8 -27 -7h-4q-2 0 -3 1q-19 4 -29.5 20t-6.5 34q20 98 -35 181t-152 103v0zM546 547z" />
    <glyph glyph-name="uniE602" unicode="&#xe602;" 
d="M945 584q-7 7 -16.5 9.5t-19 0t-16.5 -9.5l-377 -381l-383 379q-10 11 -25.5 11t-26 -11t-10.5 -26.5t11 -25.5l406 -403q0 -1 1 -1t1 -1h1q5 -5 11.5 -8t13.5 -3q5 0 9.5 1.5t9 4t8.5 5.5l403 407q10 11 10 26t-11 26zM945 584z" />
    <glyph glyph-name="uniE603" unicode="&#xe603;" 
d="M556 586l238 -238h-682q-10 0 -18.5 -3.5t-15 -10t-10.5 -15.5t-4 -19q0 -20 14 -34t34 -14h682l-238 -238q-14 -14 -14 -34t14 -34t34 -14t34 14l306 306l5 4l15 17l4 8q2 4 3.5 9t1.5 10q0 15 -9 28l-15 16l-5 4l-306 307q-14 14 -34 14t-34 -14q-9 -10 -12.5 -22
t0 -24.5t12.5 -22.5z" />
    <glyph glyph-name="uniE604" unicode="&#xe604;" 
d="M626 -215l-425 425q-32 32 -32 77.5t32 77.5l426 426q3 3 7.5 5.5t9 3t9 0t9 -3t7.5 -5.5q10 -9 10 -21.5t-10 -21.5l-425 -426q-5 -5 -8 -10.5t-4.5 -11.5t-1.5 -13q0 -10 3.5 -19t10.5 -16l424 -424q5 -4 7.5 -9.5t2.5 -11.5t-2.5 -11.5t-7.5 -10.5q-9 -9 -21 -9t-21 9
z" />
    <glyph glyph-name="uniE605" unicode="&#xe605;" 
d="M398 791l425 -425q32 -32 32 -77.5t-32 -77.5l-426 -426q-8 -9 -20.5 -9t-21.5 9q-10 9 -10 21.5t10 21.5l425 426q5 5 8 10.5t4.5 11.5t1.5 13q0 20 -14 35l-424 424q-10 9 -10 21.5t9.5 21.5t21.5 9t21 -9z" />
    <glyph glyph-name="uniE606" unicode="&#xe606;" 
d="M531 694l-6 4q-3 2 -6.5 3t-6.5 1q-12 0 -19 -8l-196 -196q-8 -8 -8 -19t8 -19q3 -3 7 -5t8 -2.5t8 0t8 2.5t7 5l177 177l176 -177q4 -4 9 -6t10.5 -2t10.5 2t8 6q8 8 8 19t-8 19l-195 196v0zM11 195h115v-293h53v293h115v54h-283v-54v0zM591 249h-143q-27 0 -47 -19.5
t-20 -47.5v-213q0 -28 20 -47.5t47 -19.5h143q13 0 25.5 5t21.5 15q7 6 11.5 14t6.5 16t2 17v213q0 28 -20 47q-9 10 -21.5 15t-25.5 5v0zM604 -31q0 -6 -4 -9q-2 -3 -4.5 -3.5t-4.5 -0.5h-143h-2q-2 0 -3.5 1t-3.5 3q-4 3 -4 9v213q0 1 0.5 2.5t1 3.5t2.5 3q2 3 4.5 3.5
t4.5 0.5h143q5 0 9 -4q2 -1 3 -3t1 -4v-2v-213v0zM993 229q-20 20 -48 20h-184v-347h54v152h130q28 0 48 20q9 9 14.5 21.5t5.5 25.5v61q0 9 -2.5 17t-7 16t-10.5 14v0zM959 121q0 -5 -4 -9t-10 -4h-130v87h130q3 0 5.5 -0.5t4.5 -3t3 -5t1 -4.5v-61v0zM959 121z" />
    <glyph glyph-name="uniE607" unicode="&#xe607;" 
d="M371 197q-28 -1 -54.5 -16t-44.5 -34.5t-38.5 -52.5t-30.5 -55t-26.5 -58.5t-21.5 -47.5h266l-25 263q-11 2 -25 1zM421 484q-18 0 -31 -10.5t-13 -25.5q0 -10 6 -18t16 -13t22 -5q18 0 30.5 10.5t12.5 25.5q0 10 -5.5 18t-16 13t-21.5 5zM583 638q59 -79 133 -118l3 -1
q-3 44 -12.5 76.5t-26.5 55.5t-42.5 37.5t-57.5 21t-74 6.5q-80 1 -135.5 -36t-74.5 -96t-1 -125q169 70 248 130q39 30 40 49zM494 241q-10 0 -17 -6t-7 -13l2 -29q1 -7 9 -11.5t17 -3.5l42 4q5 0 9.5 2t8 4.5t5.5 6t1 6.5l-2 29q0 7 -8 11.5t-18 3.5zM766 356l12 3
q18 4 26 7t20 10.5t17.5 18.5t9.5 30.5t4 47.5q0 38 -20.5 68.5t-52.5 44.5q-5 18 -11.5 35.5t-15.5 35t-19.5 34t-22.5 32t-26.5 29.5t-30 25.5t-33.5 21t-36.5 16.5t-39.5 11t-43 5h-14q-105 -3 -174.5 -73.5t-78.5 -169.5q-23 -9 -41 -25.5t-28 -40t-9 -49.5
q1 -21 3 -38.5t7.5 -29.5t10.5 -21t14.5 -15t16 -9t19.5 -5t21 -2t24 -1v229q0 20 6 41.5t17 41.5t26 38.5t34.5 34t42 26.5t49 17.5t54.5 6.5q47 0 87 -17t68.5 -46t47.5 -61t32 -69v-235q-6 -16 -55 -63q-11 -11 -26 -21t-27.5 -17t-23.5 -12t-17 -8l-6 -2q-5 -1 -8.5 -7
t-2 -11.5t7 -8.5t10.5 -1q7 2 18.5 7t40.5 22t50 37q10 9 18.5 18.5t15 17t12 15t9 13t6 10t3.5 6.5t2 2zM661 203q-8 0 -16.5 -2t-16.5 -6l-25 -262h266q-5 11 -21.5 47.5t-27.5 60.5t-31 58.5t-38 55t-42 35t-48 13.5zM557 145h-89q-12 0 -12 -6l15 -206h82l14 206
q1 6 -10 6zM647 448q0 6 -2.5 11.5t-6.5 10t-9 7.5t-12 5t-14 2q-18 0 -30.5 -10.5t-12.5 -25.5t12.5 -25.5t30.5 -10.5q12 0 22 5t16 13t6 18z" />
    <glyph glyph-name="uniE608" unicode="&#xe608;" horiz-adv-x="1000" 
d="M412 681q-22 -71 -57 -138.5t-67 -114.5t-61.5 -90.5t-47 -85t-17.5 -79.5q0 -104 73 -177.5t177 -73.5t177.5 73.5t73.5 177.5q0 20 -6.5 47.5t-17.5 58t-25.5 64t-31.5 67t-35 67t-35.5 63t-34 55t-29.5 44.5t-22.5 30t-13.5 12zM865 532q-6 26 -41 73t-69 82t-40 35
q-5 -48 -23 -96t-30 -81t-7 -57q9 -44 46.5 -68t80.5 -15t67.5 46t15.5 81z" />
    <glyph glyph-name="uniE609" unicode="&#xe609;" 
d="M352 287.5q0 -66.5 47 -113t113.5 -46.5t113 46.5t46.5 113t-46.5 113.5t-113 47t-113.5 -47t-47 -113.5z" />
    <glyph glyph-name="uniE60A" unicode="&#xe60a;" 
d="M1014 30q0 -96 -68 -164t-164 -68h-540q-96 0 -164 68t-68 164v540q0 96 68 164t164 68h540q96 0 164 -68t68 -164v-540z" />
    <glyph glyph-name="uniE60B" unicode="&#xe60b;" horiz-adv-x="1025" 
d="M12 307l57 -31q3 -2 8 -3.5t15.5 1.5t16.5 16l142 309q1 3 3 7.5t0 15t-12 16.5l-62 31q-2 2 -5.5 3t-12.5 -2t-14 -13q0 -4 -36.5 -83t-73.5 -156l-36 -76q-9 -25 10 -35zM947 276l59 28q1 0 2.5 1t6 4.5t6.5 8t3 11.5t-4 16l-146 307q0 1 -1 2l-4 6q-3 5 -7 7t-10 3.5
t-12 -1.5l-63 -32q-1 0 -2 -1t-4.5 -4t-4.5 -6.5t-2 -9.5t3 -13q7 -6 148 -314q1 -2 4 -5t11.5 -9t16.5 1zM151 277l19 42l68 -89q5 1 12.5 2t23.5 -3t23 -17q2 -2 4 -6t5.5 -17t-0.5 -28q0 -1 9 -11q31 8 49 -15q2 -1 4.5 -4t7 -14t3.5 -23q1 0 3 -1t6 -4.5t5 -6.5
q30 7 45 -11q2 -2 4.5 -5.5t7.5 -13t4 -18.5l28 -21q1 0 2.5 -0.5t6.5 -2t8.5 -4t7 -7t5.5 -10.5l24 -19q2 0 4.5 -1t9.5 -1.5t12.5 1t10.5 8.5t5 18l-93 74q0 1 -0.5 3t-0.5 7t1.5 8.5t7.5 6t15 0.5l139 -102q1 0 3 -0.5t6.5 -1t8.5 0t9.5 4.5t9.5 10q13 19 -6 40l-148 111
q0 2 -0.5 4t-1 7t1 9t7 7t14.5 2l175 -129q25 -10 36 9q14 19 0 39l-194 147q0 2 -0.5 4t-1 8t2 9t8 6t16.5 -1l199 -148q4 -1 9 -2t17 3t18 15q2 3 4 8.5t1 18.5t-11 23l-282 257q-2 1 -6 2.5t-14.5 3t-20.5 0t-22 -10t-21 -24.5q0 -2 -0.5 -5t-3 -12.5t-6 -18.5
t-11.5 -20.5t-18 -20.5t-26 -17t-35 -11q-2 0 -4 0.5t-9 1.5t-12 4l-12 6q-7 3 -10 8.5t-5.5 12.5t2.5 17q2 2 5 8t8 27t4 46q2 40 29 73h-102l22 48h154q7 5 18.5 11t41 15.5t50.5 7.5h2q2 0 6.5 -0.5t9 -0.5t10.5 -1t11.5 -1.5t11.5 -1.5t11.5 -2.5t9.5 -3t7 -2.5
q9 -3 24 -7.5t47 -10.5t48 -3l137 -297l-21 -52l2 -2q1 -2 4.5 -7.5t6.5 -11t5.5 -14.5t2.5 -18t-2.5 -20t-8.5 -22q-16 -34 -64 -36q-1 -2 0.5 -10t-3.5 -22t-16 -23q-2 -3 -6 -7t-20 -9t-35 -2q-1 -1 -0.5 -4t-1 -9t-3.5 -12t-7.5 -13.5t-13.5 -13.5q-4 -4 -11 -8t-30 -3
t-46 18q-1 -4 -3.5 -10t-15.5 -17.5t-32 -15.5h-3h-9q-6 0 -11.5 1t-12.5 4t-12 8q-2 -2 -4 -6t-10 -13t-17 -14t-21.5 -4.5t-25.5 10.5l-3 3q-2 2 -6 8t-6 12.5t-1 16.5t7 20q-1 -2 -4 -6t-12.5 -12.5t-19 -12.5t-23 -1t-26.5 16l-2 3q-2 1 -5.5 7t-4.5 12.5t1 17.5t9 23
l-2 -2q-2 -2 -6.5 -6t-9.5 -6.5t-12 -4.5t-14.5 -2t-16 4t-17.5 13q-1 0 -2.5 2t-5 8.5t-5 13.5t0 19t7.5 24q-2 -2 -4.5 -5t-11.5 -8.5t-18 -7.5t-22 2t-26 17q-2 2 -4 6t-6 18.5t3 32.5l42 60z" />
    <glyph glyph-name="uniE60C" unicode="&#xe60c;" 
d="M237 37q0 19 -13.5 32.5t-32.5 13.5h-124q-20 0 -33.5 -13.5t-13.5 -32.5t13.5 -33t33.5 -14h124q19 0 32.5 14t13.5 33zM20 300q0 -19 13.5 -32.5t33.5 -13.5h124q19 0 32.5 13.5t13.5 32.5q0 13 -6 23.5t-17 17t-23 6.5h-124q-20 0 -33.5 -14t-13.5 -33zM66 517h125
q19 0 32.5 13.5t13.5 32.5q0 13 -6 23.5t-17 17t-23 6.5h-125q-12 0 -23 -6.5t-17 -17t-6 -23.5q0 -19 13.5 -32.5t32.5 -13.5zM928 749h-48h-17h-207h-496q-13 0 -24 -6t-17 -17t-6 -23v-47h78q38 0 65.5 -27t27.5 -65.5t-27.5 -66t-65.5 -27.5h-78v-77h78q38 0 65.5 -27
t27.5 -65.5t-27.5 -66t-65.5 -27.5h-78v-77h78q9 0 18.5 -2t17.5 -5.5t15.5 -8.5t14 -11.5t11.5 -14t8.5 -15.5t5.5 -17.5t2 -18.5q0 -39 -27.5 -66t-65.5 -27h-78v-46q0 -13 6 -23.5t17 -17t24 -6.5h457h39h207h65q26 0 45 13.5t19 33.5v805q0 4 -1.5 8.5t-4 9t-6 8
t-7.5 6.5t-9.5 6t-11 4.5t-12 2.5t-12.5 1zM780 615q38 -9 43 -29q-14 -52 -39 -61q-22 0 -22 9q-2 3 0 13q1 3 1 5t0.5 4t0.5 4v3q-9 52 16 52zM615 499h39q-5 22 -7 45q-11 16 -9 32q0 23 20 23h5q3 -2 7.5 -2.5t10.5 -0.5q20 6 20 -29q0 -11 1 -22t3 -21.5t5 -21.5
q10 0 20.5 0.5t22 1.5t20 1t22 1t20 1.5t21.5 0.5q9 0 9 -16v-6q-2 -10 0 -20q3 -13 3 -19q0 -7 -3 -10t-9 -3l-2 3q-10 0 -23.5 -1t-30.5 -2q-36 -4 -54 0q36 -72 110 -72h32h4q-9 -68 -56 -77q-72 0 -122 87l-4 8l-4 8l-4 8q-2 4 -3.5 8.5t-2.5 9.5l-4 10l-2 10
q-22 0 -37 -1t-24 -3q-3 -3 -7 -3q-3 -1 -7 -1.5t-8.5 -1t-9.5 -0.5q-5 -2 -8 1.5t-3 11.5q-2 42 9 58q11 4 29 7q9 -3 11 -3zM469 515q4 3 20 16q7 5 13.5 9.5t11.5 9t9 9.5t7 10t4 11q4 9 7 15.5t7 10.5q2 3 7 3q9 -3 13 -13q4 -5 7.5 -9t6.5 -8t5 -7t3.5 -6t2.5 -6
q-1 -4 -2 -7.5t-3.5 -7t-5.5 -6t-7 -5.5q-2 -4 -5 -8.5t-7 -9.5t-9 -11t-11 -12.5t-13 -13.5q0 -22 -2 -61q-3 -39 0 -59v-26q4 -16 4 -26q0 -13 -9 -13q-4 -3 -11 0l-4 2l-3 2h-2q-5 0 -11 -4h-12q-7 -3 -7 7v6q-2 36 0 68q5 36 5 55v10q-32 -22 -59 -22q-40 -4 -51 68
q72 0 101 29zM609 -23q-34 -7 -50 -17q-7 -4 -14 -6.5t-15 -2.5q-14 0 -14 26l3 3q0 3 -1.5 5.5t-3.5 4.5v9q0 7 5 13l2 4l4 3q7 16 7 71v13v26q-22 -45 -41.5 -75t-37.5 -44.5t-34 -13.5q-38 0 -58 65q99 16 144 143q-18 1 -35.5 0.5t-34.5 -4.5h-3q-3 0 -6 -1t-7 -2h-15
h-5q-1 1 -2 2.5t-1.5 3.5t-0.5 4q-3 6 0 23q1 6 1.5 11.5t0.5 10.5q0 4 4 16q0 4 3 7q4 -3 13 0q7 3 14 3h1q2 -1 4.5 -1.5t5.5 -1.5q7 -3 11 0h149q-2 6 -5 19q-4 23 -2 36q0 13 11 13q2 0 4 -0.5t5 -1t7 -1.5h23q0 -4 2 0q11 0 11 -13q0 -7 -2 -10q-2 -7 0 -10
q-1 -1 -2 -5t-2 -10.5t-3 -16.5h190q15 0 15 -10v-13v-39q0 -13 -40 -9l-5 3h-27l2 -2q1 -1 2.5 -2t2.5 -3t3 -4l2 -6q2 -2 3.5 -5.5t2.5 -6.5h3q11 -17 13 -30q-13 -29 -68 -45q-15 3 -18 23l9 13q18 22 23 35q2 20 13 33q-9 -1 -20 -1.5t-24 -1t-29 -0.5h-32h-106
q0 -4 -3 -4v-3q-6 -16 -13 -29l7 -3h4q0 -4 5 0q2 3 4 3q20 0 18 -26q0 -19 -2 -29t-2.5 -20t-0.5 -20.5t1 -21.5v-19h15q32 3 50 13q2 1 5.5 3t8.5 3q2 0 2 -10q-2 -60 -54 -64zM830 -36q-113 6 -187 165q-5 6 -10 13q-9 6 -6 29q0 10 11 13q2 0 7 3q2 -1 5 -0.5t6 4t6 5
t5 1.5q9 0 16 -26q1 -1 2 -3t3 -3q20 -62 83 -104q25 -16 72 -20q22 0 47 -3q-18 -71 -60 -74z" />
    <glyph glyph-name="uniE60D" unicode="&#xe60d;" 
d="M510 557q-72 0 -123 -51t-51 -123t51 -123t123 -51q40 0 76 18q11 5 11 17q0 8 -6 13.5t-14 5.5q-3 0 -7 -1l-14 -6q-7 -3 -14.5 -4.5t-15.5 -2.5t-16 -1q-56 0 -95.5 39.5t-39.5 95.5t39.5 95.5t95.5 39.5q27 0 52.5 -10.5t43.5 -28.5t28.5 -43t10.5 -53q0 -6 -0.5 -13
t-2 -13t-2.5 -12l-1 -5q0 -8 6 -13.5t14 -5.5q5 0 9.5 2.5t7.5 7.5l1 3v1q7 24 7 48q0 72 -51 123t-123 51zM922 479h-67q-5 19 -12 38l-4 10q-3 6 -6 11.5t-5.5 11.5t-6.5 11l47 47q4 4 6 8.5t2 9.5t-2 10t-6 8l-97 97q-5 5 -11.5 6.5t-13 0t-11.5 -6.5l-47 -47
q-8 5 -17 10l-19 9l-9 3q-18 7 -37 12v67q0 10 -7.5 17.5t-17.5 7.5h-138q-7 0 -12.5 -3.5t-9 -9t-3.5 -12.5v-67q-19 -5 -37 -12l-11 -4q-17 -8 -34 -18l-47 47q-4 4 -8.5 5.5t-9.5 1.5t-10 -1.5t-8 -5.5l-97 -97q-4 -3 -6 -8t-2 -10q0 -10 8 -18l47 -47q-5 -8 -9.5 -17.5
t-9.5 -19.5l-3 -8q-2 -5 -3 -10l-4 -8l-2 -10q-2 -4 -3 -9h-67q-10 0 -17.5 -7.5t-7.5 -17.5v-137q0 -11 7.5 -18.5t17.5 -7.5h67q5 -19 13 -38l3 -10q8 -17 18 -34l-47 -47q-5 -5 -7 -11.5t0 -13t7 -11.5l97 -97q7 -7 18 -7t18 7l47 47q17 -10 34 -17l8 -4l3 -1
q18 -7 37 -12v-66q0 -6 2 -10.5t5.5 -8t8 -5.5t9.5 -2h138q10 0 17.5 7.5t7.5 18.5v66q19 5 38 13l10 3q2 2 4 3l6 2q2 1 4.5 2.5t5 2.5t5 2.5t5 2.5t4.5 3l47 -47q7 -7 18 -7t18 7l97 97q2 2 3.5 4.5t2.5 5t1.5 5.5t0 6t-1.5 5.5t-2.5 5t-3.5 4.5l-47 47q10 17 18 36l2 4
l2 5l12 37h67q5 0 9.5 2t8 5.5t5.5 8t2 10.5v137q0 10 -7.5 17.5t-17.5 7.5zM907 332h-83l-5 -20q-3 -11 -6.5 -22t-7.5 -22l-1 -4l-3 -4q-9 -21 -20 -40l-11 -17l59 -59l-76 -76l-59 59l-17 -11q-19 -11 -41 -21l-8 -3q-21 -9 -43 -14l-20 -4v-83h-107v83l-19 4
q-22 6 -46 15l-7 3q-20 8 -39 20l-18 11l-58 -59l-76 76l59 59l-11 17q-12 19 -21 41l-4 8q-8 21 -13 43l-5 20h-83v107h83l5 19q3 11 6.5 22t7.5 23l3 8l6 13q4 7 7.5 13.5t7.5 12.5l11 18l-59 58l76 76l58 -59l18 11q9 6 19.5 11t21.5 10l8 3q10 5 21 8l22 6l19 5v83h108
v-83l19 -5q22 -5 45 -14l8 -3q20 -9 39 -21l18 -11l58 59l76 -76l-59 -58l11 -18q3 -4 5.5 -9t5.5 -10.5t5.5 -10.5t4.5 -11l4 -8q8 -21 13 -43l5 -19h83v-107z" />
    <glyph glyph-name="uniE60E" unicode="&#xe60e;" 
d="M190 324h297v-179q0 -5 2.5 -9t7 -6.5t9.5 -2.5t9.5 2.5t6.5 6.5t2 9v179h298v-197q0 -8 5.5 -13.5t13.5 -5.5q7 0 12.5 5.5t5.5 13.5v204q0 4 -1 8t-3 7.5t-5 6t-6 4.5t-7 3.5t-8 1.5h-305v81q0 2 -0.5 4.5t-1.5 4.5t-3 4t-4 3t-4.5 1.5t-4.5 0.5q-4 0 -7.5 -1.5t-6 -4
t-4 -6t-1.5 -6.5v-81h-304q-12 0 -21 -9t-9 -22v-204q0 -5 2.5 -9.5t6.5 -7t9 -2.5q8 0 13.5 5.5t5.5 13.5v197v0zM264 78h-186q-5 0 -9 -2.5t-6.5 -7t-2.5 -9.5v-180q0 -7 5.5 -12.5t12.5 -5.5h186q8 0 13.5 5.5t5.5 12.5v180q0 6 -2.5 10t-7 6.5t-9.5 2.5v0zM599 78h-186
q-5 0 -9.5 -2.5t-7 -7t-2.5 -9.5v-180q0 -7 5.5 -12.5t13.5 -5.5h186q8 0 13 5.5t5 12.5v180q0 8 -5 13.5t-13 5.5v0zM934 78h-186q-8 0 -13.5 -5.5t-5.5 -13.5v-180q0 -2 0.5 -4.5t2.5 -4.5l2 -4q2 -2 4 -3t4.5 -1.5t5.5 -0.5h186q7 0 12.5 5.5t5.5 12.5v180q0 4 -1.5 7.5
t-4 6t-6 4t-6.5 1.5v0zM357 492h298q7 0 12.5 5.5t5.5 12.5v223q0 4 -1.5 7t-4 5.5t-6 4t-6.5 1.5h-298q-3 0 -5.5 -1t-5 -2.5t-4 -4t-2.5 -5t-1 -5.5v-223q3 -16 18 -18v0zM357 492z" />
    <glyph glyph-name="uniE60F" unicode="&#xe60f;" 
d="M513 -212q-61 0 -120 14q-135 33 -234 127t-138 224.5t-7 265.5t126.5 234t225 138t265.5 7q30 -7 58 -17.5t55 -24t52 -30.5q13 -9 16.5 -25t-5.5 -30t-25.5 -17.5t-30.5 6.5q-63 42 -139 60q-113 27 -223.5 -6t-190 -116.5t-106.5 -197t6 -224t116.5 -190t196.5 -106.5
q57 -13 113 -11.5t110.5 17.5t103.5 46q73 45 123.5 114t70.5 154q21 90 4 180q-1 8 0.5 16t6 14t11 10.5t14.5 6.5q17 3 30.5 -6.5t16.5 -25.5q20 -108 -5 -214q-24 -100 -83.5 -182t-146.5 -135q-124 -76 -267 -76zM514 90q-16 0 -27 11l-235 227q-12 12 -12 28.5
t11.5 28.5t28 12t28.5 -11l205 -199l437 479q11 12 27.5 13t29.5 -10q8 -8 11 -18t1 -20.5t-10 -18.5l-465 -509q-4 -4 -8.5 -7t-9.5 -4.5t-10 -1.5h-1h-1z" />
    <glyph glyph-name="uniE610" unicode="&#xe610;" 
d="M513 267q4 10 18 14q-14 21 -62.5 89.5t-82.5 121t-61 101.5q-5 10 -12 25.5t-12.5 27.5t-14 26t-16.5 23.5t-19.5 16.5t-25.5 9q-30 4 -54 -16.5t-22 -46.5q0 -5 5 -13t9.5 -13.5t13.5 -16t11 -12.5q22 -25 45 -51t47 -51t44.5 -46.5t47.5 -49.5t46 -48q4 -5 15 -16
t16 -17t14.5 -15.5t16.5 -15.5t16 -13.5t17 -12.5zM490 234q-1 15 7 19q-27 29 -90.5 93.5t-97.5 100.5q-21 23 -84 94t-97 106q-3 2 -12 4t-16 0q-14 -3 -25 -20.5t-16 -40t-5 -45.5q-1 -127 116 -234q65 -60 157 -107q4 -2 12.5 -6.5t14 -7t12.5 -6t12.5 -5t9 -1t8 2t9 4
t9.5 5.5t9 6t8.5 6t7.5 4q40 24 51 28zM670 355q2 -1 10 -6t12 -6.5t11.5 -4.5t15 -2.5t14.5 2.5q1 3 -1 5.5t-5.5 6.5t-5.5 9q-7 33 13 45q19 10 31 -11l5 -17q8 38 -4 76t-42 60t-70 14q-10 -2 -19.5 -9.5t-10.5 -15.5q-1 -7 4 -16.5t13 -21.5t11 -18q20 -44 18 -90z
M629 308q-31 10 -25 45q4 26 21 31q17 6 29 -22q5 31 -7 65.5t-35.5 57.5t-53.5 30.5t-61 -14.5q-14 -10 -22.5 -29.5t-5.5 -44.5q7 -56 55 -96t105 -23zM731 389q-2 -9 3.5 -13t12.5 0q3 3 2 13q-5 4 -18 0zM615 366v-3q0 -10 2 -13h12q7 7 1.5 15t-15.5 1zM536 264
q-14 -5 -30 -18q1 -2 4 -2.5t6 -1.5t4 -3q-7 -9 -18 -16t-27.5 -14t-24.5 -12q-5 -3 -30 -20t-39 -22q-9 -3 -31.5 -5t-36 -8.5t-18.5 -23.5q10 0 20.5 8t18.5 9q1 -9 -7.5 -15.5t-16.5 -14.5t-6 -21q9 1 19 12.5t21 12.5q1 -8 -11 -20t-13 -22q16 -2 27.5 11t19.5 15
q8 -1 9.5 -15.5t6.5 -17.5q9 13 6.5 21.5t-6.5 21.5t0 22q3 7 8 13.5t12.5 12t15.5 10.5t18.5 9.5t19 8t20 7.5t19.5 6.5t19 6t16 5.5q-1 -6 -9 -12t-9 -9q6 -18 27.5 -23t43 3.5t26.5 24.5q-68 18 -74 76zM622 179q15 -7 25.5 -13t24 -16.5t18.5 -24t1 -30.5
q-1 -6 -9 -13.5t-9 -16.5q10 -1 19 3.5t16 3.5q9 -2 19 -20t22 -19q4 9 -5 23t-9 23q7 3 14.5 -7.5t15.5 -8.5q6 11 -4.5 22.5t-11.5 14.5q6 3 11.5 -1t10.5 -8t11 -1q0 9 -6 13t-15 4t-19 -0.5t-18 0.5q-4 4 -13.5 17.5t-14.5 20.5t-13 17.5t-15 18.5q-6 -1 -13.5 0
t-14 2.5t-12 0.5t-6.5 -5zM499 179q-8 -3 -20.5 -9t-19.5 -8q2 -2 5.5 -2.5t7.5 0t8 0.5h7q2 2 4.5 5.5t4.5 6.5t3 7zM471 88q10 -24 40 -29.5t46 18.5q-13 32 -5 64q-15 0 -24.5 5.5t-16.5 15.5q-9 -8 -15.5 -20t-13.5 -29t-11 -25zM466 67q-28 -41 8 -69q32 -23 71 -12
q25 7 35 28q-8 32 -16 44q-4 2 -8.5 -1.5t-10 -8.5t-11.5 -6q-34 -7 -68 25zM455 -2q-7 -28 3 -56t30 -43.5t44 -19.5t43 17q14 13 16.5 43t-4.5 56q-12 -16 -40 -24.5t-55.5 -2t-36.5 29.5zM841 239q-8 4 -18.5 10.5t-18 11.5t-17.5 10.5t-19 8.5t-19.5 5.5t-22.5 1.5
t-25 -4q-6 16 15.5 20t37.5 -2q0 5 -2 26q-14 -5 -30.5 -6t-30.5 4t-21 16q-9 -34 -49.5 -48.5t-75.5 6.5q-1 -28 11 -51.5t35 -37.5t54 -15q15 -1 29.5 2t27 9t23 15.5t15.5 21.5q-4 2 -12 2h-13q-6 0 -11.5 1.5t-7.5 6.5q16 5 43 3t53 -10q37 -12 42 -56q4 -4 19.5 -17.5
t21 -19t18.5 -17.5t20.5 -19.5t17.5 -18.5t18.5 -21.5t16.5 -20.5q-27 56 -79 104q-4 4 -11 10t-11.5 9.5t-9.5 10.5t-8 13t-4.5 15.5t-1.5 20.5zM682 577q2 1 14 6t20 8t20 2.5t20 -6.5q-4 17 -21.5 20t-34 -6.5t-18.5 -23.5zM462 550q9 16 30.5 22.5t38.5 -6.5
q2 20 -24 22q-29 3 -42 -17q-6 -10 -3 -21zM593 509q-5 7 -13.5 16t-14.5 16.5t-9 16.5q4 0 20 -16q2 -3 3 -2v2q-6 18 -9.5 36.5t-3.5 38.5t7.5 35.5t23.5 21.5q-9 -19 -12.5 -43t-1 -47t11 -43.5t21.5 -33.5l4 -18z" />
    <glyph glyph-name="uniE611" unicode="&#xe611;" horiz-adv-x="1035" 
d="M1021 322q-1 -2 -2 -2.5t-4 0t-4 0.5q1 3 4.5 3.5t5.5 -1.5zM962 339v-5q-10 2 -25 3.5t-31 3.5t-27 4q-2 0 -9.5 1t-10.5 2t-7.5 3.5t-6.5 5.5q16 -4 34.5 -7t44.5 -6.5t38 -4.5zM937 317q-4 -1 -10 2.5t-8 3.5q-5 2 -12 2.5t-13 0.5t-13 0.5t-12.5 1t-11 2.5t-9.5 4
q15 1 41.5 -2t42.5 -9q2 1 3 0t2 -1v-2v-3zM920 303q-4 0 -13 0.5t-18.5 2t-18.5 3.5t-13 4q22 6 63 -10zM905 285q-7 -2 -22.5 1t-19.5 10q9 -1 21.5 -4t20.5 -7zM903 227q-1 -3 -6 -3.5t-9.5 2t-4.5 7.5q4 0 10 -3t10 -3zM896 265q-5 -4 -17 0t-11 12q5 -1 13.5 -5.5
t14.5 -6.5zM896 247v-5q-15 1 -17 12q3 0 5.5 -1.5t5 -3.5t6.5 -2zM849 159q-7 -2 -18.5 -2.5t-21 0.5t-20 1t-16.5 -2q2 5 30 6q13 1 25 0t21 -3zM840 139l-1 -3q-13 3 -27.5 3.5t-31.5 0t-26 -0.5q38 14 86 0zM836 118v-5q-19 -2 -99 0q2 4 6 5t11 -0.5t10 -1.5
q15 -1 34.5 -0.5t32.5 2.5h5zM836 92q0 -3 -2 -3q-8 0 -19.5 0.5t-20.5 0.5h-22q-11 0 -21 0.5t-20.5 1t-19.5 1.5q5 4 11.5 4.5t17 -1t14.5 -1.5q16 -1 28.5 -0.5t27.5 0t26 -2.5zM833 69l-2 -3q-22 -1 -61.5 2t-48.5 4q-3 0 -10.5 -1t-12 0t-7.5 5q32 0 73.5 -2.5
t68.5 -4.5zM817 50v-2q0 -1 -1 -1q-35 0 -69 3t-65 9q18 3 62 -3t69 -4q1 0 4 -2zM814 3q-13 -7 -60 -8q5 5 17 6.5t23 1t20 0.5zM813 -47v-4q-23 1 -91 0q3 3 7 4t7.5 1t9 -0.5t8.5 -0.5q50 2 59 0zM810 -20q0 -2 -1 -3t-1 -2q-15 1 -20.5 1t-19.5 -2t-20 -2q12 14 62 8z
M803 32q1 -3 -1 -3q-41 -2 -135 6q2 4 7 4.5t14 -1t11 -2.5q24 -2 49.5 -2.5t50.5 -0.5q1 1 3 0zM799 -73q-2 -2 -12.5 -1t-10.5 -3q-7 3 -20.5 3t-24 -1t-17.5 1q8 5 21.5 6t32 -0.5t26.5 -1.5q5 4 0 8q2 -2 3 -2.5t1.5 -3t0.5 -5.5zM681 -100q3 7 25 8t42 -1t31 2
q2 -2 0 -4l-2 -2q-14 -2 -51.5 -0.5t-44.5 -2.5zM762 362q-14 -1 -83 15q29 3 83 -15zM757 -116v-4q-5 -1 -11 -2t-12 -1h-12h-13q-7 0 -13.5 0.5t-13.5 0.5h-14q1 -3 8 -3q-6 -1 -13 0t-12 5q6 3 14 4t13 1t16 -1t14 -1q32 -2 42 0q-2 3 -6 3q1 2 2.5 2t5.5 -2t5 -2z
M740 342v-5q-8 4 -33 7t-34 9q3 2 15.5 0.5t18 -3t18 -4.5t15.5 -4zM737 -140q0 -3 -6 0q-2 -1 0.5 -3.5t1.5 -4.5l-14 2q-4 0 -26 -0.5t-37.5 1t-27.5 5.5q13 1 54 -0.5t55 0.5zM725 540q-4 -1 -5 0.5t-1.5 5t-1.5 5.5q-4 10 -6.5 15.5t-6 15t-3.5 15.5q2 -2 3.5 -4t3.5 -5
l2 -4q2 -3 3 -6t2.5 -6.5t2 -6.5t1.5 -6.5t2 -6.5l2 -6zM721 320v-4q-8 4 -30 5t-29 9q3 -1 6 -1h5q3 0 6 -1h6q3 -1 6.5 -1t6.5 -0.5t6 -1.5t6 -1.5t5.5 -1.5t5.5 -2zM711 521q-3 3 -6 8t-5 10.5t-3.5 13t-2 12.5t-1.5 13t-2 11q7 -7 11 -31.5t11 -31.5q0 -1 -1 -2.5
t-1 -2.5zM701 300v-4q-7 3 -26.5 5t-24.5 10q17 -2 51 -11zM698 500q-3 0 -5 2t-3 4t-2.5 5.5t-2 6t-1.5 6.5t-2 5q-8 27 -4 34q2 -4 4 -9.5t3 -10.5t3 -11t3 -11t3 -10.5t4 -10.5zM687 277q-6 -2 -14 -1.5t-17 3t-14 5.5q3 1 6.5 1t7 -0.5t8 -1.5t8.5 -2l8 -2q4 -1 7 -2z
M676 474q-15 17 -15 61q5 -6 8 -27t9 -28q-1 -6 -2 -6zM662 465q-16 22 -12 49q14 -36 12 -49zM658 260v-4l-19 4q-2 2 -3 5q4 2 10.5 -1.5t11.5 -3.5zM650 446q-7 6 -10 23t7 22q-3 -10 0 -24.5t3 -20.5zM648 241q-6 -8 -27 3q3 4 6.5 3t10.5 -4t10 -2zM641 151q0 -2 -2 -3
h-23q-5 0 -23 1.5t-23 1.5q-2 1 -8.5 0t-10.5 0t-5 5q8 0 17.5 -0.5t17.5 -1t16.5 -1t15.5 -1t14.5 -0.5t13.5 -1zM636 168q-18 -1 -25 -1t-28 3.5t-25 4.5q15 1 25 0t27.5 -3.5t25.5 -3.5zM635 419q-2 -3 -4 -3q-14 14 -9 46q2 -5 5.5 -21t7.5 -22zM628 130q-17 -2 -89 2
q-11 -9 -18 0q11 4 49.5 2t53.5 -1q1 -2 4 -3zM622 713q-7 1 -18.5 4.5t-20.5 6t-21 4.5t-21 -1q3 10 28 6q22 -3 53 -20zM622 90q-8 -4 -25.5 -4.5t-33.5 -1t-24 -6.5q-5 2 -14 4.5t-16 4t-15 4.5t-13 7q8 1 17.5 -1.5t21 -7t16.5 -5.5q7 3 19 4.5t23 1.5h24h20zM616 388
q-5 2 -8 12.5t-3.5 21t0.5 17.5q3 -9 6.5 -28t4.5 -23zM604 70q0 -1 -1 -3l-1 -1q-11 -1 -26.5 -2.5t-25.5 -2.5q-1 -3 3 -3t3 -3q-14 -1 -17 4q5 5 13.5 6.5t21 2t18.5 1.5q2 0 4.5 1.5t3.5 2t4 -2.5zM587 41q-3 -2 -6.5 -3t-7.5 -1.5t-7.5 -1t-9 -1t-7.5 -1.5q0 -1 3 -2
t3 -4q-11 0 -14 3q2 6 9.5 8.5t21.5 2.5h15zM587 16q-2 -3 -7 -4.5t-9.5 -2t-10.5 -1.5t-10 -2q-2 -1 0 -3t0 -3q-5 -1 -7.5 1t-1.5 8q35 8 46 7zM578 -8v-8h-4q-4 1 -4 -1q-1 1 0.5 2.5t4 3.5t3.5 3zM576 351q-4 0 -7 10q-1 3 -2 4q-2 -7 -2 -18.5t-1 -18.5q-7 4 -10 16
t-2 22q2 0 3.5 -2t2 -4.5t0.5 -6t1 -5.5q2 3 2 15.5t4 15.5q5 -5 7.5 -11.5t3.5 -16.5zM573 715v-5q-4 1 -17 1t-21.5 1t-13.5 4q6 4 12 3.5t18 -2.5t18 -2h4zM572 -39v-4q-6 -2 -16 -3.5t-18 -3.5t-12 -6q1 13 22 14t24 3zM570 703q0 -2 -1 -3v-2q-33 5 -62 0q2 4 7 6
t10.5 2.5t13.5 0t12.5 -1t11.5 -1.5t8 -1zM567 -16q-2 -2 -5 -3t-6 -1.5t-8 -1t-7 -0.5q-1 -3 3.5 -3t5.5 -2q-18 -4 -20 3q9 11 37 8zM555 681q-1 -3 -33.5 -2t-37.5 1q5 3 15 4.5t17.5 1t21.5 -2.5t17 -2zM550 323v-3q0 -2 -0.5 -3.5t-0.5 -2.5t1 -3q-6 1 -8 6t-3.5 13.5
t-2.5 11.5q-1 0 -1.5 -2.5t0 -4.5t0.5 -4q0 1 -2.5 6.5t-2.5 10.5t5 6q3 -1 7 -18q3 -10 8 -13zM542 19q-11 0 -38.5 7.5t-34.5 8.5q-6 1 -10.5 0.5t-8 1t-4.5 7.5q23 -4 49.5 -10.5t46.5 -14.5zM532 291q-6 23 -11 42q6 0 8 -6.5t3.5 -15t5.5 -11.5q-1 0 -2 -5t-4 -4z
M535 56q-30 -2 -60 13q1 2 3.5 2.5t6 0t6.5 -1.5t7 -2.5t6 -1.5q24 -7 31 -10zM523 664q-8 -3 -32.5 -2t-34.5 -4q4 9 15.5 10t28 -1.5t23.5 -2.5zM515 250q-1 1 -4.5 11t-5 15t-3 13.5t-0.5 15t5 11.5q-2 -15 3.5 -36t4.5 -30zM512 -39q0 -1 -1.5 -1.5t-1.5 -1.5
q-15 4 -58 10.5t-65 14.5q3 3 7 3.5t12.5 -2.5t9.5 -3q16 -4 51.5 -11t45.5 -9zM503 -2q0 -1 -0.5 -2t-1.5 -1q-13 4 -40.5 8.5t-40.5 9.5q11 3 25 0.5t32 -8t26 -7.5zM501 644q-17 -3 -37 -4t-38 0q21 9 75 4zM499 230q-4 0 -6.5 4t-3.5 8t-2 11.5t-1.5 10t-2.5 9.5t-3 11
t0 8.5t6 6.5q0 -10 2 -19l2 -18q2 -9 4.5 -17t4.5 -15zM496 -71v-5l-24 6l-22 6q-14 3 -26 5q-7 2 -23 4t-26.5 4.5t-19.5 7.5q3 2 6.5 2.5t6.5 0t8 -2.5t7 -2q6 -1 13 -3l18 -3q8 -2 82 -20zM495 623q-8 -4 -23.5 -5t-33 -1t-25.5 -2q0 2 1 4t3.5 2.5t4.5 0.5t4.5 0.5
t3.5 0.5q11 1 35 0t30 0zM486 -93q-64 -1 -151 27q20 1 59.5 -9.5t52.5 -12.5q2 0 16.5 -1t22.5 -4zM480 222q-1 0 -8.5 20.5t-7.5 34.5q3 -1 3.5 1.5t2.5 1.5q-5 -11 5.5 -30.5t4.5 -27.5zM475 603q-13 -2 -31.5 -4.5t-36.5 -4.5t-29 -3q2 3 6 5t7.5 2.5t9.5 1t8 0.5
q43 5 61 4q0 -1 3 -1h2zM430 581q-9 -5 -37 -5.5t-33 -1.5q6 6 19.5 7.5t26 -0.5t24.5 0zM420 -108q-14 -1 -30 0.5t-27 4t-31.5 6.5t-30.5 6q1 4 13 3q14 -1 51 -9.5t55 -10.5zM414 555q-12 -3 -65 -6q1 5 18.5 7.5t30.5 1.5q4 0 16 -3zM395 -60q0 -6 -8 -3q-4 1 -3 3
q2 0 4 -0.5t3.5 -0.5t3.5 1zM374 517q-7 5 -15.5 3.5t-17 -1.5t-9.5 7q6 -1 13 -0.5t13 1t10 -1.5t6 -8zM360 494v-5q-9 5 -37 2.5t-35 3.5q8 0 23.5 1t27.5 0.5t21 -2.5zM354 463q-2 -3 -3.5 -2.5t-4.5 2.5t-5 2q-10 0 -35.5 -0.5t-33.5 0.5q2 3 5.5 4t7 1t9.5 -0.5t9 -0.5
q42 0 51 -6zM351 483q-2 -3 -13 -3q8 7 13 3zM332 454v-5q-7 4 -18 4t-20.5 -1.5t-21.5 -3t-20 -0.5q3 4 7.5 5t10 0.5t10.5 0.5q35 4 46 3q2 -2 6 -3zM331 485q-28 -11 -45 -5q5 3 11.5 3.5t18.5 1t15 0.5zM315 429q-1 -3 -2.5 -2.5t-5 2.5t-4.5 2q-10 0 -33 -2.5t-35 -0.5
q3 3 10.5 4t21 1.5t18.5 0.5q7 1 16 0.5t14 -5.5zM306 411q-7 1 -20.5 0.5t-23.5 -1.5t-23 -2t-20 -2q6 7 39 10q12 1 25.5 0.5t22.5 -5.5zM292 402q-13 -5 -39.5 -8.5t-41.5 -2.5q9 5 25.5 7.5t27 2.5t28.5 1zM222 228q-6 -6 -14.5 -15.5t-14.5 -16.5t-14 -15l-15 -15
q-8 -8 -16 -15q2 7 7.5 13.5t15 15t13 12t11 13.5t13.5 15.5t14 7.5zM208 191q-31 -40 -57 -66q0 -3 -0.5 -4.5t-1.5 -3t-3 -2.5t-6 0q31 43 68 76zM202 237q-5 -7 -13 -16t-13.5 -15.5t-15.5 -15.5q-1 -1 -2.5 -3.5t-3.5 -4.5l-2 -2q-2 -2 -4 -2.5t-5 0.5q3 4 7 8l10 10
l10 10q3 3 9 10.5t11.5 12.5t11.5 8zM163 -14q-5 -7 -20 -15t-20 -11q1 3 3 5.5t3.5 4t5 4t5 3.5t6 2.5t5.5 2t6.5 2t5.5 2.5zM154 12q-8 -9 -31 -18t-29 -13q1 -2 3 -2.5t5 -0.5q-1 -2 -3.5 -2.5t-7.5 -0.5h-6q4 8 12.5 13.5t17 8t18.5 6.5t15 10zM622 108q-62 0 -80 2
q1 -3 -3 -4q-9 -3 -13 2q-1 1 0 2q9 5 43 2.5t47 -0.5q-1 -3 0 -3.5t4 -0.5q2 1 2 0zM521 -10q-7 2 -14 5q1 1 7.5 -0.5t6.5 -4.5zM358 502q-20 2 -52 3q14 14 52 -3zM1029 356q-17 -16 -42.5 -46.5t-35.5 -41.5q1 -7 1 -18v-20v-20q0 -10 2 -18.5t6 -13.5q-3 -3 0 -14
q-5 -11 -14 -21t-19 -18t-19.5 -15.5t-19.5 -17t-17 -19.5q-3 -17 0 -35.5t9.5 -40.5t8.5 -34q-7 -14 -16.5 -29t-18.5 -27t-20 -26t-20.5 -25.5t-21 -25.5t-19.5 -25q-33 -2 -178 3q-52 1 -135 17q-3 0 -33 9q-8 2 -19 3.5t-23.5 2t-20.5 1.5q-8 2 -52.5 10.5t-66.5 11.5
q-15 1 -31 6t-24 8t-28.5 12.5t-22.5 10.5q-3 2 -4.5 6t-4.5 6q-4 1 -3 -2.5t-2 -3.5q-2 0 -9 2t-8 -1q-53 42 -91 119q-1 10 -6.5 37t-5.5 42q0 7 3 21t3 21q4 36 6 43q7 16 45 74l12 18q8 10 13.5 18t11.5 17.5t11 16.5q1 4 2.5 7.5t1.5 6.5q98 127 186.5 227t185.5 183
q6 1 12.5 4t12.5 6t12 4q10 1 22 0t22 -3q28 -6 75 -33.5t56 -31.5q3 -9 10 -12q12 -18 19.5 -31.5t17 -34.5t13 -39t2.5 -40t-9 -42l-3 -3q-1 -1 -2 -1t-4 1q-6 -15 -23 -36.5t-23 -31.5q28 -9 60.5 -17t69 -14t65.5 -10.5t71.5 -10.5t65.5 -9q0 -4 -1 -9t2 -8zM679 408
q-10 -15 -28.5 -39t-33 -45.5t-24.5 -43.5q-9 -9 -17.5 -19.5t-15.5 -21.5l-16 -22q-7 -11 -14 -23q-17 -28 -54.5 -75t-48.5 -63q-8 1 -9 0q-17 -24 -74 -47q-94 -39 -139 -11q-22 1 -33 12q6 7 -2 10.5t-7 6.5q10 -1 23.5 -6t27.5 -9.5t26 -5.5q9 -1 18.5 0.5t15.5 3.5
t14.5 5t14.5 4q32 9 51.5 19t37.5 29q28 30 40 61.5t5 75.5q-6 -4 -12.5 -10.5t-11 -11.5t-11.5 -13.5t-12 -13.5q-1 -2 -6 -8t-7.5 -8.5t-8 -8.5t-9 -9t-8 -7t-8.5 -6t-8 -3q-2 -1 -6.5 -4t-8 -5.5t-9 -5.5t-10 -5.5t-11 -5.5t-11.5 -4.5t-11.5 -3t-12.5 -1.5
q-20 0 -34.5 10t-18.5 27q-1 4 -1 8t0.5 7.5t1.5 8t3 7.5l3 7q2 4 3.5 6.5t4 6.5t3.5 6q12 19 34.5 52.5t31.5 48.5q-5 0 -20 1.5t-24 1.5q-53 -8 -96 -35q-58 -82 -30 -152q4 -5 8.5 -11t10 -15t7.5 -12q-2 -1 -4.5 0t-3.5 -2q3 -5 10 -2.5t10 -0.5q-2 -3 -5 -2h-4
q-2 -2 0 -4t4.5 -4t4 -4t0.5 -5q-4 1 -9 6t-9 5q-9 -6 -33 -15t-33 -17h2q3 0 4 -2q-2 1 -3.5 0t-2.5 -1q6 -17 16 -30t32.5 -32t24.5 -21q1 -2 0 -4l-1 -2h3q6 0 17 -5t15 -4q-1 0 -1 2t1 2q147 -38 333 -55q10 -1 23 -3.5t25.5 -4.5t22.5 -3q7 0 21.5 1t21.5 1
q106 -7 153 7q39 55 89 119q0 21 -6.5 61.5t-6.5 56.5q11 17 40.5 44t40.5 42q-3 13 -2 57.5t0 55.5q12 16 34 42.5t29 34.5q-64 9 -173 27.5t-143 23.5zM937 147q-6 -6 -5 -7q3 -2 7 5q2 2 3 5q0 -2 -2 -2zM911 130l-8 -13l2 2q5 3 13 13t14 13q0 2 1 3v2h-1
q-1 -3 -9.5 -9.5t-11.5 -10.5zM608 353q12 17 59.5 80.5t68.5 101.5q-1 75 -42 138q-37 37 -92 60.5t-98 7.5q-8 -7 -45.5 -39.5t-55.5 -52.5q-15 -16 -34 -36t-35 -37t-33.5 -35t-34.5 -37t-32 -36v-3l-2 -8q-24 -27 -64.5 -83t-61.5 -80q6 3 40 22q2 1 12.5 7t17 9t12.5 5
q13 4 29 6.5t26 3.5t33.5 2.5t31.5 1.5q3 1 4 -2.5t2 -3.5q16 0 31.5 -5.5t25.5 -12t24 -15.5t25 -13q24 -19 37.5 -50t23.5 -78q17 28 39.5 59.5t47 65t40.5 57.5zM691 428q1 -3 7 -4.5t7 -0.5l-4 2q-2 1 -4.5 1.5t-5.5 1.5zM647 396l2 2q10 12 13 19q-14 -12 -15 -21z
M420 690q6 2 12 11q-10 -7 -12 -11zM426 236q-2 2 -3 4t-2 5q-8 -4 -27 -27q-2 -3 -7 -8t-7.5 -8.5t-6 -8.5t-4.5 -10t0 -12q6 6 12 12.5t11.5 13.5t10.5 13.5t11 13.5t12 12zM418 253q-1 1 -2 3l-2 2q-1 2 -2 2q-36 -34 -46 -42v-22q11 9 27.5 29t24.5 28zM337 604
q6 6 14 14.5t14.5 15t14.5 15t14 14.5q1 1 4 3.5t4.5 3.5t2.5 3.5t1 4.5l-18 -18q-14 -14 -20 -21t-16 -17.5t-15 -17.5zM409 267q-3 5 -6 7t-6 0.5t-5.5 -3.5t-6.5 -6.5t-7 -7.5q-2 -1 -3.5 -2.5t-3.5 -3t-3.5 -3t-3 -2.5t-2.5 -2l-2 -2l-2 -2q-1 -1 -1 -3q2 -2 6 -15
q3 3 9.5 8t10.5 8.5t9 8.5t9 9.5t8 10.5zM384 293q-5 -4 -10.5 -8t-10 -8.5t-8.5 -9.5t-8 -11q4 -5 7 -11q18 11 41 37q-10 9 -11 11zM377 297q-2 1 -5 3.5t-6 2.5q-2 -1 -4 -3l-4 -4q-1 -1 -3 -2.5t-4 -3.5t-4 -3.5t-3.5 -3t-4 -3t-4.5 -3.5q1 -3 4 -7.5t4 -7.5q3 3 7 6.5
t7.5 6.5t7 7t6.5 7.5t6 7.5zM352 310q-3 -3 -14 -11.5t-15 -14.5q3 0 5 -4q1 -2 3 -3q5 6 16 15.5t16 14.5q-9 3 -11 3zM326 317q-1 1 1 3q1 2 1 3q-4 0 -9 1.5t-7 2.5q-3 -4 -12 -11t-14.5 -13t-7.5 -12q4 1 9 0q3 -1 5 -1q4 2 7.5 5t6 6t6.5 6l6 6q4 3 8 4zM300 288
q2 0 5 -0.5t6 -1.5t6 -1q4 5 16 14t16 15q-16 6 -17 6l-5 -5q-3 -3 -6 -5t-6 -5t-5.5 -5t-5 -5.5t-4.5 -6.5zM338 133q-1 12 3.5 29.5t6 27.5t-4.5 27q-8 -7 -23.5 -27t-25.5 -29q-1 -7 -1 -15.5t-0.5 -15t-1 -14.5t-0.5 -15q6 2 13.5 6.5t11.5 7.5t12 9.5t10 8.5zM305 204
q22 24 29 38q-4 4 -8 7t-9 5q-6 -8 -20 -22.5t-23.5 -27t-15.5 -26.5q5 -3 9.5 -3.5t8 0.5t8 5t7 6.5t7 8.5t7.5 9zM291 331q-4 -5 -18 -18t-16 -20q16 1 31.5 17.5t17.5 17.5q-3 0 -7.5 1.5t-7.5 1.5zM275 158q-1 -38 -6 -65h3q1 0 3 0.5t3.5 1.5t3 1.5t3.5 1.5q1 8 1.5 19
t1.5 23t1 18h-14zM263 331q-19 -20 -35 -41q8 0 15.5 3t12.5 8l10 9q4 5 9 11t10 10q-5 1 -13 0t-9 0zM277 -133zM262 161q-1 -7 -4 -33.5t-1 -38.5q4 0 6 2t3 6t1 7v10q0 5 1 8q3 36 3 40q-3 1 -5 -0.5t-4 -0.5zM245 151q-9 -40 -7 -66q5 0 8 1.5t4 6t1.5 9t0.5 10.5v10
q1 5 3 18t2 18q-4 -1 -9 -5q-2 -1 -3 -2zM212 322q-5 -9 -19 -23.5t-19 -24.5q11 4 19.5 13t17 20t15.5 16q-1 -8 -14 -22.5t-15 -16.5q15 0 24 6.5t19.5 21t13.5 18.5q-10 -2 -21.5 -4.5t-20.5 -3.5zM234 93q0 9 1.5 24.5t1.5 23.5q-12 -4 -11 -29q1 -15 8 -19zM185 -108
q2 0 12 -3t14 -2q-24 6 -26 5zM126 351q5 2 9 8t4 9q-2 -2 -3.5 -4.5t-3 -4t-3 -4t-3.5 -4.5zM117 49q-8 -5 -19 -9t-23.5 -8.5t-20.5 -7.5q1 -4 5 -10.5t4 -10.5q9 4 34 14.5t37 17.5q-3 2 -8.5 7t-8.5 7zM114 55q-3 1 -6.5 7t-7.5 7q-11 -4 -30 -12.5t-25 -10.5q0 -4 2 -9
t3 -8q3 1 8 2.5t9 2.5t8.5 2.5t8.5 3t8 3.5t8 3.5t7.5 3.5t6.5 5zM94 204q4 -2 5 -3q-5 -3 -28.5 -13t-34.5 -18q1 -2 0 -7t1 -7l10 5q19 8 28.5 13.5t20 18t14.5 28.5q-4 -2 -7 -5t-5 -5.5t-4 -6.5zM100 76l-2 2v4l-2 2q0 2 -0.5 4t-1.5 4l-25 -10q-20 -8 -30 -13
q2 -3 3 -9t2 -8q37 10 56 24zM40 179q6 4 21 10t24 12.5t11 15.5q-6 -3 -16 -7.5t-17.5 -8t-14 -9.5t-8.5 -13zM51 202q3 2 8.5 4t9 3.5t8 3.5t8.5 4.5t8 4.5q-4 2 -2 5q-1 -1 -13 -4.5t-18 -8t-9 -12.5zM90 95q1 2 0.5 3.5t-1.5 5t-1 4.5q-32 -9 -54 -23q2 -1 2.5 -5
t-0.5 -5l8 2q4 1 8 2.5t7.5 3t7.5 3t7.5 3t7.5 3t8 3.5zM34 150v-4v-2q0 -2 -0.5 -3.5t-0.5 -3t-0.5 -3.5t-1.5 -4q7 2 14.5 5.5t13 6.5t13.5 7t13 7q-1 3 0.5 9.5t-0.5 7.5q-26 -12 -51 -23zM83 148q-7 -1 -24.5 -10.5t-27.5 -12.5q-1 -2 -1 -6v-11l28 14q18 9 27 13
q-2 2 -1 6.5t-1 6.5zM31 104q0 -1 1 -3t1 -3v-5q11 3 28 10.5t24 9.5v15q-9 -2 -18 -7t-18.5 -9.5t-17.5 -7.5zM62 219q1 2 4 2.5t5 2t2 4.5q-4 -1 -8 -4t-3 -5zM172 130q3 1 3 -1l-3 -2h-1q-4 -8 -9 -15.5t-11 -15.5q-1 -2 1 -4q1 -2 1 -3q-1 -1 -3 -2t-4 -1.5t-4 -0.5
q2 7 6 14t6.5 10.5t9.5 11t8 9.5zM277 376q0 -2 -1.5 -2.5t-4 0t-5 0.5t-5 0.5t-4.5 -0.5q-1 0 -1 -1.5t1 -1.5q-32 -11 -58 -12q0 2 1.5 3t4 2t4 1.5t5.5 0.5h5q-3 3 -7.5 2t-8 -2.5t-6.5 0.5q-1 4 1 5t7 1t6 1q50 10 66 3z" />
    <glyph glyph-name="uniE612" unicode="&#xe612;" 
d="M610 431q7 -6 16.5 -6t15.5 6q5 5 6.5 10.5t0 11.5t-6.5 10l-113 114l-1 1q-4 5 -10 6.5t-12 0t-10 -6.5l-114 -114q-7 -7 -7 -16t6.5 -16t16 -7t16.5 7l75 75v-415l-75 75q-7 7 -16.5 7t-16 -6.5t-6.5 -16t7 -16.5l113 -113q7 -7 16.5 -7t16.5 7v1l114 113q4 4 5.5 10
t0 12t-6 10t-10 6t-11.5 0t-10 -6l-75 -75v414zM808 698h-592q-28 0 -48 -20t-20 -48v-660q0 -14 5.5 -26.5t14.5 -21.5t21.5 -14.5t26.5 -5.5h592q28 0 48 20t20 48v660q0 18 -9 34t-25 25t-34 9zM831 -7q0 -8 -2.5 -15t-6.5 -12.5t-10 -9.5t-13 -6.5t-14 -2.5h-546
q-19 0 -32.5 13.5t-13.5 32.5v614q0 19 13.5 32.5t32.5 13.5h546q19 0 32.5 -13.5t13.5 -32.5v-614z" />
    <glyph glyph-name="uniE613" unicode="&#xe613;" 
d="M797 761h-480q-32 -1 -58.5 -34.5t-41.5 -87t-22.5 -118t-2 -129t18.5 -117.5t41 -86t65 -32q0 -5 -6 -8q-21 -9 -146 -123q-64 -60 -87 -109t-17 -78h448q-1 3 0.5 12t8 25t16.5 34.5t29 42t42 45.5q41 39 108 90.5t77 60.5l7 8q37 -1 65 31.5t41 85.5t18.5 117.5
t-2.5 129t-22.5 118t-41 87.5t-58.5 35zM317 729h384q-40 -5 -66 -88t-29.5 -181.5t18.5 -182t66 -89.5h11h-11h-373q-39 -1 -64 54t-29.5 134.5t3 159t32 136t58.5 57.5zM477 -129h-384q1 30 39 78.5t83 89t87.5 77t46.5 41.5h416q-19 -8 -62 -40t-90 -73.5t-87 -90
t-49 -82.5zM797 188h-64q-65 -4 -88 129t4 270.5t84 141.5h64q33 -1 58 -57.5t32.5 -136t3 -159t-29.5 -134.5t-64 -54zM797 539h-32q-27 1 -35 -64q-9 -69 12 -109q9 -18 23 -18h32q22 -2 31 45t-0.5 95.5t-30.5 50.5zM797 380h-32q-5 0 -8 20t-3 43.5t2.5 43.5t8.5 20h32
q7 -2 10 -34.5t0 -63.5t-10 -29z" />
    <glyph glyph-name="uniE614" unicode="&#xe614;" 
d="M917 -134v853q0 5 -1 10t-3 9t-5 8t-6.5 7t-8 5t-9 3t-9.5 1h-725q-9 0 -17 -3.5t-13.5 -9t-9 -13.5t-3.5 -17v-853v-42h43h725h42v42zM619 719h149v-209l-72 59l-1 2h-1l-2 -2l-73 -61v211zM235 -134h-64q-20 0 -21 25v12v6v768v5q-1 14 0 20t6 11.5t15 5.5h64v-853z
M853 -134h-575v853h298v-255v-5q0 -3 3 -8q4 -4 8 -6q7 -2 12.5 -2t8.5 1l4 2l83 69l84 -69q2 -2 5.5 -3.5t10.5 -2t11 5.5q1 1 1.5 3t1.5 5t1 5.5t0.5 5t0.5 5.5v249h42q15 0 18.5 -8.5t3.5 -28.5v-5v-768v-5v-9q0 -4 -0.5 -8t-1.5 -7t-2.5 -5.5t-3.5 -4.5t-5.5 -3t-8.5 -1
z" />
    <glyph glyph-name="uniE615" unicode="&#xe615;" 
d="M337 240q-1 -2 -1 -3l-48 -175q-1 -4 -1 -8t1 -7.5t3 -7t4 -6.5q9 -9 21 -9q2 0 4 0.5t4 0.5l175 48v0q2 0 3.5 0.5t2.5 1.5l466 466q10 10 15.5 24t5.5 29q0 12 -3 23.5t-9 21.5t-15 19l-44 44q-27 27 -64 27q-32 0 -53 -21l-466 -466v-2h-1zM925 586l-46 -46l-75 76
l45 46q6 6 15 5t15 -7l44 -44q7 -7 7 -17q0 -2 -0.5 -4.5t-1.5 -4.5t-3 -4zM420 233l336 336l75 -76l-335 -336zM359 96l24 90l65 -65zM955 402q-14 0 -23 -9.5t-10 -22.5v-435q0 -17 -12 -29t-29 -12h-735q-17 0 -29 12t-12 29v709q0 17 12 29.5t29 12.5h474q13 0 22.5 9
t9.5 22.5t-9.5 23t-22.5 9.5h-479q-41 0 -71 -29.5t-30 -71.5v-719q0 -42 30 -71.5t71 -29.5h745q42 0 71.5 29.5t29.5 71.5v440q0 13 -9.5 22.5t-22.5 9.5z" />
    <glyph glyph-name="uniE616" unicode="&#xe616;" 
d="M397 808q-7 0 -12.5 -3t-8.5 -8.5t-3 -12.5q0 -10 7 -17t17 -7h221q6 0 12 3t9 8.5t3 12.5q0 5 -2 9.5t-5 8t-7.5 5t-9.5 1.5h-221zM422 661h-50v-98v-1l-2 -2l-3 -3l-4 -4q-2 -2 -5 -4t-5 -3.5t-4.5 -3t-5.5 -3.5l-6 -3l-3 -2q-62 -43 -97.5 -109.5t-35.5 -142.5
q0 -127 89.5 -217t216.5 -90t217 90t90 217q0 76 -35.5 142.5t-98.5 109.5l-2 2q-3 1 -7 3q-9 6 -14 10q-15 11 -15 14v45v14v28v12q0 30 -21.5 51.5t-51.5 21.5h-123q-15 0 -28.5 -6t-23.5 -15.5t-16 -23.5t-6 -28h50q0 10 7 17t17 7h122q11 0 18 -7t7 -17v-12v-28v-14v-45
q0 -7 2.5 -14.5t7 -14t10.5 -12.5t14 -12t15.5 -10.5t13.5 -7.5l-3 2q52 -36 82 -92t30 -120q0 -107 -75.5 -182.5t-182 -75.5t-182 75.5t-75.5 182.5q0 64 30 120t82 92l-3 -2q15 8 29 18q34 26 34 53v98v0zM422 637v-49h171v49h-171zM170 60q5 -8 15 -9.5t18.5 4
t10.5 15.5t-4 18q-64 93 -64 206q0 25 3.5 50t10 49t16.5 46.5t23 43.5q6 9 3.5 19t-11 15.5t-18.5 3t-15 -11.5q-61 -98 -61 -215q0 -129 73 -234zM860 503q-5 9 -15 11.5t-18.5 -2.5t-11 -15t2.5 -19q25 -41 38 -88t13 -96q0 -111 -63 -203q-2 -3 -3 -6t-1 -6.5t0.5 -6.5
t2 -6t3.5 -5.5t5 -4.5q4 -2 9 -3t9.5 0t8.5 3.5t7 6.5q71 104 71 231q0 113 -58 209zM612 436q9 -13 8.5 -39t-11.5 -68q73 -58 62 -93q-11 -34 -102 -38q-5 -16 -10 -28.5t-10.5 -22.5t-11 -17.5t-11 -12t-11.5 -7t-12 -2.5q-18 0 -34.5 21.5t-32.5 66.5q-23 1 -41 3.5
t-30.5 7t-20 11t-10.5 15.5q-6 18 8.5 41t51.5 53q-12 42 -12.5 68t8.5 39q4 4 8 7t9 4.5t11 1.5q14 0 35 -9.5t48 -27.5q14 9 26 16.5t22.5 12t19 7t16.5 2.5t15 -3t12 -9zM498 375q-46 32 -67 32q-3 0 -5 -0.5t-3 -1.5t-2 -1.5t-2 -1.5q-12 -17 7 -83l1 -4l-3 -3
q-15 -12 -25 -22t-15 -17t-8.5 -13t-3 -9t0.5 -6q7 -20 79 -22h5l1 -4q25 -71 45.5 -71t43.5 71l2 5h5q71 3 78 23q6 21 -52 66l-3 3l1 5q18 65 5 82q-3 5 -11 5q-3 0 -7 -0.5t-10 -3t-12.5 -6t-16.5 -9.5t-20 -14l-4 -3z" />
    <glyph glyph-name="uniE617" unicode="&#xe617;" 
d="M461 328q69 0 119 60t50 144.5t-50 144.5t-119 60q-34 0 -65.5 -16t-54 -43.5t-36 -65.5t-13.5 -80q0 -55 23 -102t61.5 -74.5t84.5 -27.5zM461 276q-92 0 -156 76t-64 180q0 108 64 182t156 74q91 0 155.5 -75.5t64.5 -180.5q0 -35 -8 -68.5t-22.5 -61.5t-35.5 -51.5
t-45 -39.5t-52 -25.5t-57 -9.5v0zM604 742q15 34 41 50.5t62 16.5q53 0 90.5 -46.5t37.5 -112.5q0 -69 -37.5 -116.5t-90.5 -47.5h-21v-30l-5 -26h20q84 0 155.5 -55t106.5 -145h51q-18 54 -48.5 99.5t-72 79.5t-89.5 52q26 18 45.5 45t30.5 61.5t11 72.5q0 88 -53 149
t-126 61q-48 0 -84.5 -20.5t-59.5 -61.5q0 9 33 -22q1 -2 3 -4zM61 -87q21 102 78 184.5t140.5 130.5t176.5 48q137 0 242.5 -102t136.5 -261h51q-12 70 -40 133.5t-69 114.5t-91 88.5t-109 58t-121 20.5q-104 0 -199 -54.5t-162 -149.5t-90 -211h56z" />
    <glyph glyph-name="uniE618" unicode="&#xe618;" 
d="M800 19q-5 5 -16 5t-16 -5t-5 -16t5 -16l102 -96q7 -6 19.5 -6t19.5 6q5 5 5 16t-5 16zM800 896h-576q-12 0 -23.5 -2.5t-22.5 -7.5t-21 -11.5t-18 -15t-15 -18.5t-11.5 -20.5t-7.5 -22.5t-3 -24v-780q0 -35 17 -63t45 -43.5t60 -15.5h416q5 0 9.5 2t8 6t6 8.5t2.5 9.5
q0 6 -4 12t-10 9.5t-12 3.5h-416q-29 0 -49.5 21t-20.5 50v780q0 29 20.5 50t49.5 21h570q28 0 49 -21t21 -50v-627q0 -16 17 -23q5 -2 9 -2q9 0 17 8t8 17v627q5 48 -30.5 85t-84.5 37zM282 678h473q5 0 9 4t4 9t-4 9t-9 4h-473q-10 0 -13 -10v-3t1.5 -6t4.5 -5t7 -2z
M282 518h473q5 0 9 4t4 9t-4 9t-9 4h-473q-5 0 -9 -4t-4 -9q0 -3 1.5 -6t4.5 -5t7 -2zM269 96q0 -9 10 -12q2 -1 3 -1h96q28 -53 82 -84t116 -31q96 0 166.5 70.5t70.5 166.5t-70.5 166.5t-166.5 70.5q-32 0 -63 -9t-57.5 -25t-49 -38t-38 -49.5t-22.5 -58.5h-64q-5 0 -9 -4
t-4 -8.5t4 -8.5t9 -4h64v-32q0 -58 19 -96h-83q-3 -3 -7 -5q-6 -5 -6 -8zM582 19q-76 0 -128 51h256q-23 -23 -58 -37t-70 -14zM582.5 390q58.5 0 106 -31t66.5 -84h-345q19 53 66.5 84t106 31zM397 224h371v-26q0 -44 -19 -83h-333q-19 39 -19 83q-3 6 -3 11t1.5 9t1.5 6z
" />
    <glyph glyph-name="uniE619" unicode="&#xe619;" 
d="M916 -44h-812q-7 0 -13 2t-11 5.5t-9 8.5t-6 11.5t-2 12.5v617q0 17 12 29t29 12h812q17 0 29 -12t12 -29v-617q0 -17 -12 -28.5t-29 -11.5zM104 625q-5 0 -9 -3.5t-4 -8.5v-617q0 -3 2 -6t5 -4.5t6 -1.5h812q5 0 9 3.5t4 8.5v617q0 5 -4 8.5t-9 3.5h-812zM510 229
l-441 346l17 22l424 -332l424 332l18 -22zM96 -33l-21 20l289 289l21 -20zM663 277l290 -290l-20 -20l-290 290z" />
    <glyph glyph-name="uniE61A" unicode="&#xe61a;" 
d="M512 766q-125 0 -213 -88t-88 -213q0 -67 28 -126.5t78 -101.5l-4 3l-20 -8q-5 -2 -15 -7t-37.5 -20.5t-51.5 -32t-51 -41t-43 -48.5q-64 -97 -64 -249h30q-1 2 -1 7t-0.5 20t0.5 30.5t4.5 37.5t9 43t16 45t24.5 45q17 24 44 48.5t53 42t51 32t39.5 21.5t15.5 7l20 8
l-7 6q81 -62 182 -62q125 0 213 88t88 212.5t-88 212.5t-213 88zM512 195q-73 0 -135.5 36t-99 98.5t-36.5 135.5q0 113 79.5 192t191.5 79q32 0 62.5 -7t57 -20.5t50 -32t42 -42t32 -50t20.5 -57t7 -62.5q0 -44 -13.5 -85t-39 -74.5t-58.5 -58.5t-74.5 -38.5t-85.5 -13.5z
M949 32q-8 14 -20 28.5t-24.5 25.5t-25.5 21.5t-25 18t-21 13t-15 8.5l-5 3l-30 -15l11 -5q7 -4 27 -16t37.5 -25t37 -33t31.5 -40q36 -63 36 -182h31q-1 120 -45 198z" />
    <glyph glyph-name="uniE61B" unicode="&#xe61b;" 
d="M624 -147q-12 0 -24.5 2.5t-25 7.5t-25.5 12q-68 39 -138 119q-11 12 -21.5 25t-21 27t-21 28.5t-20.5 29.5t-19.5 30.5t-18.5 31.5q-56 97 -87 192q-33 101 -31 177q1 54 33 90q21 23 73 53l13 8l8 -13q15 -27 55 -96.5t67 -115.5l13 -23h-22q-45 -30 -20 -123
q6 -23 16.5 -47t24.5 -46t29 -41q52 -61 101 -61q8 0 16 2t16 7l13 7l8 -13q67 -116 122 -212l8 -13l-13 -8q-65 -37 -108 -37zM279 644q-40 -24 -58 -47t-19 -62q-2 -70 28 -163.5t86 -190.5q55 -96 121 -170t127 -109q31 -18 60 -18q18 0 36.5 6.5t42.5 18.5
q-50 87 -108 186q-16 -6 -33 -6q-61 0 -119.5 67.5t-81.5 150.5q-28 106 25 151q-11 19 -24 42t-29 50t-30.5 52.5t-23.5 41.5zM445 438q-24 0 -36 21l-111 193q-9 15 -4 31q1 6 4 10.5t6.5 8.5t8.5 7l59 33q9 6 20 6q8 0 15 -2.5t12.5 -7.5t8.5 -11l112 -193q8 -14 3.5 -31
t-19.5 -26l-58 -33q-10 -6 -21 -6zM392 717q-3 0 -5 -1l-59 -34l-2 -2l-2 -2l-1 -3v-4q0 -2 1 -4l112 -193l2 -2q2 -2 3.5 -2.5t3.5 -0.5t3 0.5t3 0.5l58 34q10 6 4 15l-111 193q-3 5 -10 5zM757.5 -98q-10.5 0 -20 5.5t-15.5 14.5l-105 183q-8 14 -4 30.5t19 24.5l55 32
q10 5 20 6q11 0 20.5 -5.5t14.5 -15.5l106 -183q8 -14 3.5 -30.5t-18.5 -24.5l-55 -32q-10 -5 -20.5 -5zM707 167l-4 -1l-56 -32q-3 -2 -4 -6t1 -8l105 -183q1 -2 3.5 -3.5t4.5 -1.5t3 0.5t2 1.5l56 32q3 2 4 6l-1 7l-105 183q-3 5 -9 5z" />
    <glyph glyph-name="uniE61C" unicode="&#xe61c;" horiz-adv-x="1093" 
d="M712 491l-120 121l-362 -362l120 -121zM809 588q20 20 20 48t-20 48l-24 25q-13 13 -30.5 17.5t-35.5 0t-31 -17.5l-72 -73l121 -120zM206 226l-37 -157l157 36zM990 -41h-888q-14 0 -24 -10t-10 -24v-35q0 -14 10 -24t24 -10h888q14 0 24 10t10 24v35q0 14 -10 24
t-24 10z" />
  </font>
</defs>
</svg>
